<svg id="Calque_1" data-name="Calque 1" xmlns="http://www.w3.org/2000/svg" viewBox="0 0 14.92 15.86"><defs><style>.cls-1{fill:#e30613;}</style></defs><title>babylogo</title><path class="cls-1" d="M3.08,13.85a1.21,1.21,0,1,1-1.65,0,1.19,1.19,0,0,1,1.17-.25c.09,0,.11,0,.16-.06l1-1.47.78-1.2A2.25,2.25,0,0,1,3.75,8.7L3,8.45l-.72-.21A.17.17,0,0,0,2,8.3a1,1,0,0,1-1.46.07,1,1,0,1,1,1.63-1,2.09,2.09,0,0,1,.07.39l1.61.48c.14-.2.25-.39.39-.56A2.08,2.08,0,0,1,5.31,7a2.57,2.57,0,0,1,.87-.07.18.18,0,0,0,.15-.09c.36-1.15.7-2.3,1-3.45V3.32a1.5,1.5,0,0,1-.71-.63,1.62,1.62,0,0,1-.19-1.42,1.59,1.59,0,0,1,.94-1A1.67,1.67,0,0,1,9,.34a1.65,1.65,0,0,1,.74,1A1.65,1.65,0,0,1,9.39,2.9a1.69,1.69,0,0,1-1.18.59H8.12c-.28,0-.27,0-.35.24C7.44,4.85,7.1,6,6.77,7.08a2.24,2.24,0,0,1,1.08,1,2.11,2.11,0,0,1,.21,1.44l5.33,1.61a1,1,0,0,1,1.11-.44.89.89,0,0,1,.69.8.9.9,0,0,1-.42.93,1,1,0,0,1-1.38-.32,1,1,0,0,1-.11-.39.2.2,0,0,0-.15-.19c-1.35-.39-2.69-.8-4-1.21L8,10c-.14.21-.28.39-.4.58a.19.19,0,0,0,0,.16c.22.27.46.53.68.8a.26.26,0,0,0,.35.1,1,1,0,0,1,1,.38A1,1,0,1,1,8,12.05a.22.22,0,0,0,0-.17c-.23-.28-.48-.55-.71-.82C7.2,11,7.14,10.93,7,11a2.19,2.19,0,0,1-1.68.23l-.14-.05c-.09,0-.22-.12-.27-.09a.91.91,0,0,0-.24.3L3.65,13Z" transform="translate(-0.28 -0.07)"/></svg>