<svg id="Calque_1" data-name="Calque 1" xmlns="http://www.w3.org/2000/svg" viewBox="0 0 398.82 397.7">
    <defs>
        <style>.cls-1{fill:#293273;}.cls-2{fill:#dc3545;}.cls-3{fill:#273375;}</style>
    </defs>
    <title>LOGO</title>
    <path class="cls-1"
          d="M157.74,394.87l12.44-7.68,5.2,8.42L139.09,418l-8.56-13.86q-4-6.45-3-12.27a13.82,13.82,0,0,1,17.29-10.68q5.61,1.75,9.6,8.22Zm-6.48,4-3.36-5.43a6.47,6.47,0,0,0-4.09-3.25,6.3,6.3,0,0,0-4.77.94A6.6,6.6,0,0,0,136,395a6.39,6.39,0,0,0,1,5.15l3.36,5.43Z"
          transform="translate(-100.66 -100.45)"/>
    <path class="cls-1"
          d="M144.13,353.05l4.55,11.84,8.62-.67,3.75,9.73-44.81,2.31-1.91-4.95h0l-1.9-5L147.24,338l3.74,9.73Zm-3.38,12.44-2.91-7.57-10.93,8.47.06.16Z"
          transform="translate(-100.66 -100.45)"/>
    <path class="cls-1"
          d="M133.4,319.19a4.24,4.24,0,0,0-3.23,2,19.63,19.63,0,0,0-1.71,5.75q-1.32,8.25-3.6,12.51a9.88,9.88,0,0,1-7.69,5.11,10.27,10.27,0,0,1-9.26-3.08,18.68,18.68,0,0,1-5-10.74q-1.12-7.2,1.55-12.14a11.07,11.07,0,0,1,8.83-5.75l.19,0,1.49,9.49a5.4,5.4,0,0,0-4.07,2.31,7.56,7.56,0,0,0-.57,5.1,6.35,6.35,0,0,0,2,4,4.09,4.09,0,0,0,3.45,1,3.52,3.52,0,0,0,2.72-2.05,30.81,30.81,0,0,0,1.87-6.33c.67-5.1,1.86-9.08,3.55-11.91a10.67,10.67,0,0,1,8-5.12,10.28,10.28,0,0,1,9.38,3q3.82,3.86,4.95,11a21.2,21.2,0,0,1-1.46,12.64q-2.58,5.49-9.85,6.49l-.18,0-1.5-9.52q3.68-.58,4.94-2.63c.84-1.37,1.07-3.3.67-5.79a7.28,7.28,0,0,0-1.93-4.38A3.92,3.92,0,0,0,133.4,319.19Z"
          transform="translate(-100.66 -100.45)"/>
    <path class="cls-1" d="M112.38,259.31l-1.46,11.18L145.66,275l-1.28,9.82-34.74-4.52-1.43,11-7.55-1,4.16-32Z"
          transform="translate(-100.66 -100.45)"/>
    <path class="cls-1"
          d="M134.91,249.33l15.45,5.34L147.13,264l-40.32-13.92,4.85-14q2.41-7,7.07-10A11.31,11.31,0,0,1,129,225a9.39,9.39,0,0,1,4.8,3.5,12.34,12.34,0,0,1,2,6.13,9.54,9.54,0,0,1,5.34-4.13,11.55,11.55,0,0,1,6.67.49l2.55.88a16.46,16.46,0,0,0,3.76.77,5,5,0,0,0,3.44-.64l.56.2-3.34,9.66a4.83,4.83,0,0,1-3.52.4,28.94,28.94,0,0,1-4.18-1.07l-2.44-.85a6.3,6.3,0,0,0-4.93,0,6.4,6.4,0,0,0-3.06,3.93Zm-7.2-2.48,1.63-4.74a6.77,6.77,0,0,0,.21-4.76,4.88,4.88,0,0,0-3.18-2.77,5.62,5.62,0,0,0-4.51.16,6.26,6.26,0,0,0-3,3.81l-1.62,4.68Z"
          transform="translate(-100.66 -100.45)"/>
    <path class="cls-1"
          d="M128,191.92l-4.42,7.49-10.78,3.26-.12-.14,5.51-9.33Zm27.68,9.36L148,214.22l9.16,5.41,9.16-15.52L172.9,208l-14.19,24L122,210.34l14.21-24.07,6.56,3.88-9.17,15.54,7.89,4.66,7.65-12.94Z"
          transform="translate(-100.66 -100.45)"/>
    <path class="cls-1"
          d="M180,182.87a4.24,4.24,0,0,0-3.6-1.23,19.47,19.47,0,0,0-5.55,2.3q-7.23,4.19-12,5.1A9.9,9.9,0,0,1,150,186.3a10.31,10.31,0,0,1-3.46-9.13,18.72,18.72,0,0,1,5.16-10.69q4.88-5.43,10.39-6.46t10,3.23l.09.16-6.42,7.15a5.37,5.37,0,0,0-4.36-1.71,7.64,7.64,0,0,0-4.32,2.77,6.39,6.39,0,0,0-1.86,4,4.09,4.09,0,0,0,1.38,3.33,3.49,3.49,0,0,0,3.3.82,31.25,31.25,0,0,0,6.09-2.55q6.59-4,11.49-4.76a10.67,10.67,0,0,1,9,3,10.28,10.28,0,0,1,3.62,9.16q-.58,5.38-5.43,10.79A21.3,21.3,0,0,1,174,202.25c-3.93,1-7.68-.21-11.24-3.54l-.09-.16,6.44-7.17c1.84,1.65,3.56,2.38,5.15,2.17s3.24-1.25,4.92-3.13a7.31,7.31,0,0,0,2.18-4.26A3.94,3.94,0,0,0,180,182.87Z"
          transform="translate(-100.66 -100.45)"/>
    <path class="cls-1"
          d="M206.09,155l8.41,14L206,174.15l-21.94-36.58,12.73-7.64q6.36-3.81,11.84-3.1a11.3,11.3,0,0,1,8.54,5.81,9.32,9.32,0,0,1,1.43,5.77,12.35,12.35,0,0,1-2.42,6,9.5,9.5,0,0,1,6.74.28,11.42,11.42,0,0,1,4.8,4.66l1.38,2.31a17.41,17.41,0,0,0,2.39,3,5,5,0,0,0,3.05,1.72l.3.5-8.77,5.26a4.79,4.79,0,0,1-3-2,29.2,29.2,0,0,1-2.51-3.51l-1.33-2.22a6.28,6.28,0,0,0-3.78-3.16,6.39,6.39,0,0,0-4.87,1Zm-3.92-6.53,4.3-2.58a6.81,6.81,0,0,0,3.22-3.52,4.87,4.87,0,0,0-.66-4.16,5.57,5.57,0,0,0-3.56-2.77,6.22,6.22,0,0,0-4.75,1L196.48,139Z"
          transform="translate(-100.66 -100.45)"/>
    <path class="cls-1"
          d="M252.91,131.6l-14.18,5,3.53,10,17-6,2.53,7.19-26.34,9.26-14.16-40.24,26.37-9.27,2.53,7.19-17,6,3,8.65,14.18-5Z"
          transform="translate(-100.66 -100.45)"/>
    <path class="cls-1"
          d="M283.37,133.12a4.29,4.29,0,0,0-2-3.26,19.55,19.55,0,0,0-5.73-1.8q-8.24-1.44-12.45-3.78a9.89,9.89,0,0,1-5-7.77,10.28,10.28,0,0,1,3.22-9.22,18.68,18.68,0,0,1,10.81-4.88q7.23-1,12.11,1.73t5.62,8.93l0,.18-9.52,1.35a5.39,5.39,0,0,0-2.24-4.11,7.65,7.65,0,0,0-5.09-.65,6.31,6.31,0,0,0-4,1.9,4.12,4.12,0,0,0-1.08,3.44,3.49,3.49,0,0,0,2,2.75,31.36,31.36,0,0,0,6.3,2q7.65,1.14,11.86,3.73a10.66,10.66,0,0,1,5,8,10.27,10.27,0,0,1-3.11,9.34q-3.9,3.77-11.1,4.78a21.23,21.23,0,0,1-12.62-1.66q-5.44-2.67-6.34-9.94l0-.18,9.54-1.36q.53,3.69,2.55,5c1.36.86,3.29,1.12,5.78.76a7.3,7.3,0,0,0,4.41-1.86A4,4,0,0,0,283.37,133.12Z"
          transform="translate(-100.66 -100.45)"/>
    <path class="cls-1"
          d="M306.64,129.13l-1.07,14.58L295.7,143l3.12-42.54,16.24,1.19c5.05.37,8.95,2,11.73,4.74a13.82,13.82,0,0,1-1.49,20.26q-4.73,3.51-12.29,3Zm.56-7.59,6.37.46a6.52,6.52,0,0,0,5-1.4,6.32,6.32,0,0,0,2-4.42,6.54,6.54,0,0,0-1.34-4.77,6.39,6.39,0,0,0-4.79-2.17l-6.37-.47Z"
          transform="translate(-100.66 -100.45)"/>
    <path class="cls-1"
          d="M358.53,135.21l-14.46-4.09-2.9,10.23,17.33,4.91-2.07,7.33L329.57,146l11.62-41,26.89,7.61L366,119.88,348.64,115l-2.5,8.83,14.46,4.09Z"
          transform="translate(-100.66 -100.45)"/>
    <path class="cls-1"
          d="M393.46,156.26l0,.18q-3.24,6.52-8.74,7.93t-12.38-2.16q-7-3.65-9.06-10.13t1.56-13.44l4.09-7.92q3.57-6.91,9.9-9.11t13.07,1.3q7.2,3.74,9.41,9.13t-1.2,11.74l-.16.12-8.57-4.43c1.21-2.33,1.57-4.25,1.11-5.77s-1.84-2.86-4.09-4a5.78,5.78,0,0,0-5.79,0,12.6,12.6,0,0,0-4.86,5.51l-4.12,8a11.93,11.93,0,0,0-1.55,7.28,6.54,6.54,0,0,0,3.76,5q3,1.56,5.14.74t3.95-4.35Z"
          transform="translate(-100.66 -100.45)"/>
    <path class="cls-1" d="M432.2,160.79l-8.81-7-21.87,27.37-7.74-6.18,21.87-27.37L407,140.65l4.75-6L437,154.84Z"
          transform="translate(-100.66 -100.45)"/>
    <path class="cls-1"
          d="M465.3,187.93l-21.43,17.48q-5.67,4.64-12,3.48t-11.23-7.21q-5-6.1-4.86-12.51t5.79-11L443,160.64l6.28,7.7-21.43,17.48c-2.05,1.67-3.16,3.45-3.34,5.37a7.8,7.8,0,0,0,2,5.68,7.59,7.59,0,0,0,5.1,3.08q2.82.28,5.91-2.24L459,180.23Z"
          transform="translate(-100.66 -100.45)"/>
    <path class="cls-1"
          d="M460.62,230.84l-6.82-13.38-9.48,4.83,8.19,16.05-6.79,3.46L433,216.93l38-19.38,12.7,24.89L477,225.9l-8.2-16.07L460.58,214l6.83,13.38Z"
          transform="translate(-100.66 -100.45)"/>
    <path class="cls-1"
          d="M496.67,265.53,470,272.7c-4.71,1.27-8.83.69-12.33-1.72s-5.95-6.14-7.3-11.18-1.13-9.54.7-13.41,5.09-6.43,9.8-7.7l26.71-7.17,2.58,9.59-26.71,7.17c-2.55.69-4.29,1.86-5.24,3.53a7.74,7.74,0,0,0-.48,6,7.54,7.54,0,0,0,3.39,4.89q2.46,1.42,6.31.39l26.71-7.17Z"
          transform="translate(-100.66 -100.45)"/>
    <path class="cls-1"
          d="M484.41,293l14.64,6.49.43,11.41-21.6-11.41-21,14-.45-12,14.39-7.81-14.94-6.71-.43-11.42,22,11.72,20.68-13,.42,11.33Z"
          transform="translate(-100.66 -100.45)"/>
    <path class="cls-2"
          d="M215.69,480.85l14.85-40,14.64,5.43a17.41,17.41,0,0,1,10.1,9,16.75,16.75,0,0,1,.37,13.56L253,476a16.75,16.75,0,0,1-9.14,10,17.41,17.41,0,0,1-13.51.2Zm21.48-29.39-9.54,25.7,5.35,2a6.77,6.77,0,0,0,6.16-.65,11,11,0,0,0,4.53-5.91l2.69-7.25a11,11,0,0,0,.41-7.38,6.8,6.8,0,0,0-4.24-4.52Z"
          transform="translate(-100.66 -100.45)"/>
    <path class="cls-2"
          d="M297.58,457.25,294,484.68q-.93,7.26-6.29,10.75t-13.11,2.49q-7.81-1-12.14-5.74t-3.38-12l3.53-27.43L272.5,454,269,481.45c-.34,2.61.08,4.68,1.27,6.19a7.73,7.73,0,0,0,5.38,2.73,7.6,7.6,0,0,0,5.82-1.27c1.49-1.16,2.41-3.05,2.75-5.69L287.73,456Z"
          transform="translate(-100.66 -100.45)"/>
    <path class="cls-2"
          d="M350,478.41l.09.16q1.44,7.15-2,11.62t-11.12,5.88q-7.77,1.44-13.36-2.45t-7-11.58l-1.62-8.75q-1.41-7.67,2.25-13.27t11.12-7q8-1.49,13,1.43t6.24,10l-.05.19L338,466.43c-.48-2.57-1.37-4.32-2.66-5.23s-3.2-1.13-5.7-.67a5.8,5.8,0,0,0-4.56,3.56,12.73,12.73,0,0,0-.46,7.34l1.63,8.82a11.92,11.92,0,0,0,3.23,6.7,6.54,6.54,0,0,0,6,1.63c2.23-.41,3.73-1.27,4.52-2.56s.93-3.25.45-5.86Z"
          transform="translate(-100.66 -100.45)"/>
    <path class="cls-2"
          d="M388.26,459.55a17.81,17.81,0,0,1,.52,13.91q-2.58,6.66-10,9.83t-14.1.48a17.75,17.75,0,0,1-9.75-10l-3-7.05a17.8,17.8,0,0,1-.49-13.91q2.6-6.69,10-9.88a17.4,17.4,0,0,1,23.77,9.52Zm-12.12-3.23a12.33,12.33,0,0,0-4.94-6A7.84,7.84,0,0,0,360,455.07a12.48,12.48,0,0,0,1,7.75l3,7.11a12.43,12.43,0,0,0,5,6.1,7.17,7.17,0,0,0,6.82.26,7,7,0,0,0,4.4-5.07,12.56,12.56,0,0,0-1-7.79Z"
          transform="translate(-100.66 -100.45)"/>
    <path class="cls-2"
          d="M409.54,452l1.15,1.09.14-.11-.6-1.33-11.45-30.24,8.4-6.08L421,458l-8.66,6.27-36.17-26.47,8.38-6.07Z"
          transform="translate(-100.66 -100.45)"/>
    <path class="cls-2" d="M444.11,437.2l-7,7L407,414l7-7Z" transform="translate(-100.66 -100.45)"/>
    <path class="cls-2"
          d="M451.84,429.49l-34.61-24.93,9.13-12.67a17.39,17.39,0,0,1,11.34-7.35,16.74,16.74,0,0,1,13.17,3.24l6.23,4.48a16.75,16.75,0,0,1,7.26,11.48A17.4,17.4,0,0,1,461,416.82ZM429.2,401l22.25,16,3.34-4.64a6.78,6.78,0,0,0,1-6.11,11.15,11.15,0,0,0-4.5-5.94L445,395.8a11,11,0,0,0-7-2.35,6.79,6.79,0,0,0-5.48,2.89Z"
          transform="translate(-100.66 -100.45)"/>
    <path class="cls-3"
          d="M253,376.57c7.5,8.37,7.45,18.88,0,26.54-6.82,7-18.44,7.18-25.78.31a18.63,18.63,0,0,1,.47-27.58c5-4.54,11.32-5.6,17.9-3.78,1.29.36,1.71.26,2.45-.89,4.91-7.59,10-15.08,14.95-22.64,4-6,7.81-12.13,11.87-18.42-9.37-8.55-13.68-19.18-11.61-32.44L251,293.93c-3.64-1.1-7.32-2.07-10.91-3.33a2.71,2.71,0,0,0-3.54,1c-5.07,7-16,7.84-22.46,1-7.22-7.6-3.89-20.77,5.87-24,8.76-2.9,16,1.44,19.14,8.87.74,1.74.7,3.81,1.05,5.9l24.75,7.42c2.11-3.06,3.88-6,6-8.68,4.25-5.28,9.8-8.55,16.33-10.52,4.49-1.36,8.9-1.31,13.44-1.13a2.85,2.85,0,0,0,2.3-1.34c5.43-17.63,10.74-35.29,16.06-52.95a5.4,5.4,0,0,0,0-1,24.4,24.4,0,0,1-10.95-9.6,25.22,25.22,0,0,1-2.84-21.79,24.71,24.71,0,0,1,14.44-16.15c8.2-3.4,16.47-3.11,24.31,1.85a26.06,26.06,0,0,1,5.88,39.27c-4.77,5.64-10.94,8.23-18.06,9.05a6.22,6.22,0,0,1-1.43,0c-4.31-.44-4.23-.42-5.42,3.58q-7.26,24.42-14.6,48.83c-.25.84-.43,1.71-.68,2.67,7.13,3.37,12.81,8.17,16.44,15.18a32.75,32.75,0,0,1,3.3,22.14l81.67,24.54c4.11-6.17,9.88-8.65,17-6.68,6.33,1.75,9.79,5.91,10.64,12.17.79,5.84-1.44,10.82-6.57,14.3-7.2,4.88-16.44,2.6-21.12-4.95a15.93,15.93,0,0,1-1.71-6c-.24-1.56-.6-2.32-2.3-2.82q-31-9.15-61.84-18.53c-5.87-1.76-11.72-3.58-17.16-5.25-2.21,3.17-4.28,6-6.12,8.92a2.77,2.77,0,0,0,.42,2.48c3.41,4.11,7,8,10.42,12.16,1.51,1.84,2.69,2.69,5.32,1.58,4.92-2.09,13.18,1.11,16,5.81,3.4,5.7,3.54,11.39-.17,17.09-4.11,6.31-13.54,8-19.75,4.18C327,365,324.94,355.07,329,348.9c.34-.5-.06-1.87-.56-2.47-3.57-4.28-7.27-8.44-10.89-12.68-1.29-1.52-2.22-1.91-4.31-.68-8,4.74-16.71,5.61-25.73,3.45a19.08,19.08,0,0,1-2.08-.62c-1.43-.53-3.39-1.95-4.16-1.46-1.57,1-2.59,2.93-3.68,4.58-5.32,8.09-10.57,16.22-15.87,24.33C258.84,367.74,255.94,372.11,253,376.57Zm60-51.81c10.82-8.94,14.23-25,3.62-37.95-8.21-10-24-13.45-36.66-3.66-10.85,8.37-14.5,24.74-3.82,37.87C284.34,331.09,300.21,334.41,313,324.76Zm2.43-121.37c6.23,8.47,18.44,10,27.13,2.72a18.81,18.81,0,0,0,2.36-26.28,19,19,0,0,0-27.24-2.47C311.38,182.59,308.06,194.87,315.44,203.39Zm-68.5,195.49c5.24-4.12,6.23-11.43,1.62-16.54-4.15-4.6-10.68-5.63-16.05-1.09-4.9,4.15-5.49,10.79-1.33,16A11.22,11.22,0,0,0,246.94,398.88ZM218.8,287a7.71,7.71,0,0,0,10.9,1.62A8.21,8.21,0,0,0,231,277.38c-1.82-2.46-8.09-3.29-10.53-1.39A8,8,0,0,0,218.8,287Zm210.28,61.14a7.73,7.73,0,0,0-9.82-11.92c-3.73,3.2-3.83,8.06-1.23,11A7.79,7.79,0,0,0,429.08,348.12Zm-81.31,3.68c-2.23-2.95-7.27-4.1-10.59-1.41a7.72,7.72,0,1,0,9.56,12.11A7.37,7.37,0,0,0,347.77,351.8Z"
          transform="translate(-100.66 -100.45)"/>
    <path class="cls-3"
          d="M310.86,292.18a39.35,39.35,0,0,1,2.09,3.34c.87,1.83.15,3.67-1.94,4.56a3.4,3.4,0,0,1-4.39-1.43c-1.9-3.11-4.45-5.45-8-5.86a18.12,18.12,0,0,0-7.24.92c-2.39.75-4.28.38-5.35-1.87-.87-1.83.06-3.41,2.28-4.49,6.63-3.26,12.93-2.41,18.93,1.49A26,26,0,0,1,310.86,292.18Z"
          transform="translate(-100.66 -100.45)"/>
    <path class="cls-3"
          d="M339.1,184.93a11,11,0,0,1,1.13,2.55,3.23,3.23,0,0,1-2.14,3.86,4.88,4.88,0,0,1-4-1.17c-1.94-2.08-3.62-3.15-6.52-1.69a3.07,3.07,0,0,1-4.16-1.93,3.5,3.5,0,0,1,1.49-4.63A11.46,11.46,0,0,1,339.1,184.93Z"
          transform="translate(-100.66 -100.45)"/>
    <circle class="cls-2" cx="83.75" cy="337.57" r="5.99"/>
    <circle class="cls-2" cx="369.91" cy="250.46" r="5.99"/>
</svg>
